<?xml version="1.0" encoding="utf-8"?>
<!-- Generator: Adobe Illustrator 15.0.0, SVG Export Plug-In . SVG Version: 6.00 Build 0)  -->
<!DOCTYPE svg PUBLIC "-//W3C//DTD SVG 1.1//EN" "http://www.w3.org/Graphics/SVG/1.1/DTD/svg11.dtd">
<svg version="1.1" id="Ebene_1" xmlns="http://www.w3.org/2000/svg" xmlns:xlink="http://www.w3.org/1999/xlink" x="0px" y="0px"
	 width="299.8px" height="46.909px" viewBox="0 0 299.8 46.909" enable-background="new 0 0 299.8 46.909" xml:space="preserve">
<path fill="#C49201" d="M134.084,28.077c5.74-2.771,5.729-3.156,5.699-4.27c-0.02-0.736-0.514-1.967-1.588-1.48
	c-5.064,3.033-8.977,4.885-25.104,11.266c-2.28,0.902-2.28,0.902-2.491,1.26c-0.48,0.846,0.281,2.596,1.878,2.16
	C124.024,32.5,128.803,30.629,134.084,28.077z M149.904,20.243c-0.23-1.473-0.584-2.93-1.08-4.336
	c-0.5-1.41-1.113-2.775-1.855-4.064c-1.484-2.58-3.438-4.875-5.729-6.73c-2.289-1.854-4.908-3.262-7.67-4.121
	c-1.379-0.434-2.797-0.729-4.213-0.875c-1.424-0.15-2.842-0.154-4.244-0.01c1.387,0.234,2.736,0.559,4.037,0.967
	c1.312,0.41,2.576,0.916,3.777,1.52c2.42,1.189,4.605,2.742,6.482,4.58c0.484,0.473,0.947,0.967,1.389,1.477
	c-2.154,4.977-14.18,9.824-27.742,15.299c-4.394,1.77-4.394,1.77-4.636,2.17c-0.603,0.963,0.008,2.957,1.718,2.473
	c17.992-7.35,30.408-12.428,32.506-17.514c0.213,0.32,0.418,0.645,0.615,0.973c-1.883,4.369-10.783,8.691-20.517,12.793
	c-2.547,1.074-2.547,1.074-2.81,1.482c-0.628,0.971,0.032,2.932,1.843,2.389c12.243-5.066,20.94-9.527,22.858-14.025
	c0.795,1.785,1.369,3.66,1.703,5.58c-2.395,4.494-10.617,8.533-14.645,10.295c-2.623,1.15-2.623,1.15-2.902,1.723
	c-0.455,0.916,0.039,2.412,1.662,1.898c10.424-4.504,14.631-7.926,16.232-10.592c0.014,0.498,0.012,1,0,1.496
	c-3.209,4.787-12.902,9.061-20.486,12.043c-2.544,0.994-2.544,0.994-2.802,1.506c-0.41,0.799,0.084,2.115,1.591,1.686
	c10.416-4.014,18.176-7.68,21.354-11.777c-0.092,0.525-0.203,1.051-0.326,1.57c-1.113,1.307-2.717,2.588-4.811,3.838
	c-1.926,1.154-1.926,1.154-2.238,1.877c-0.328,0.77-0.328,1.961,0.662,1.523c2.455-1.406,4.1-2.619,5.217-3.658
	c-0.213,0.51-0.439,1.012-0.689,1.508c-2.025,1.779-4.711,3.301-7.043,4.432c-2.252,1.092-2.252,1.092-2.602,1.898
	c-0.186,0.42-0.361,1.461,0.697,1.072c2.996-1.395,5.133-2.627,6.68-3.699c-0.859,1.16-1.818,2.256-2.873,3.271
	c-1.938,1.869-4.203,3.443-6.697,4.73c2.756-0.561,5.416-1.744,7.793-3.393c2.371-1.648,4.453-3.773,6.082-6.232
	c1.639-2.451,2.805-5.236,3.436-8.146c0.166-0.727,0.281-1.467,0.371-2.203c0.045-0.371,0.086-0.732,0.111-1.117l0.035-0.553
	l0.018-0.262l0.008-0.291C150.211,23.221,150.127,21.721,149.904,20.243z"/>
<polygon points="27.865,15.79 15.454,35.176 2.904,15.79 0,15.79 0,38.652 2.989,38.652 2.989,21.172 14.245,38.652 16.556,38.652 
	27.797,21.248 27.797,38.652 30.754,38.652 30.754,15.79 "/>
<rect x="37.122" y="15.79" width="2.989" height="22.862"/>
<path d="M50.759,20.629c0.946-0.785,2.17-1.404,3.637-1.839c1.487-0.44,3.277-0.664,5.319-0.664c1.009,0,1.967,0.073,2.849,0.216
	c0.888,0.145,1.729,0.342,2.5,0.588c0.772,0.245,1.501,0.535,2.168,0.863c0.673,0.331,1.312,0.687,1.896,1.056l0.767,0.484v-3.627
	l-0.308-0.128c-0.771-0.321-1.544-0.617-2.295-0.877c-0.756-0.263-1.557-0.496-2.38-0.69c-0.82-0.194-1.696-0.348-2.602-0.456
	c-2.04-0.242-4.612-0.226-6.798,0.164c-1.217,0.218-2.37,0.549-3.428,0.984c-1.063,0.438-2.042,0.992-2.911,1.646
	c-0.875,0.658-1.636,1.436-2.262,2.312c-0.627,0.877-1.117,1.879-1.456,2.976c-0.336,1.093-0.507,2.304-0.507,3.601
	c0,1.296,0.171,2.507,0.507,3.6c0.338,1.096,0.828,2.098,1.456,2.975c0.625,0.875,1.387,1.653,2.262,2.313
	c0.869,0.654,1.848,1.208,2.911,1.646c1.058,0.436,2.214,0.768,3.437,0.984c1.218,0.216,2.503,0.326,3.818,0.326
	c1.063,0,2.063-0.055,2.971-0.163c0.905-0.107,1.78-0.261,2.602-0.456c0.822-0.195,1.624-0.43,2.382-0.7
	c0.748-0.265,1.52-0.562,2.293-0.885l0.308-0.128v-3.633l-0.775,0.511c-0.541,0.357-1.152,0.702-1.814,1.026
	c-0.66,0.322-1.392,0.609-2.176,0.855c-0.785,0.247-1.64,0.444-2.541,0.588c-0.898,0.144-1.865,0.216-2.875,0.216
	c-2.044,0-3.834-0.221-5.321-0.656c-1.466-0.429-2.689-1.045-3.635-1.83c-0.935-0.776-1.636-1.725-2.086-2.82
	c-0.456-1.112-0.687-2.381-0.687-3.772c0-1.392,0.231-2.664,0.688-3.781C49.123,22.356,49.825,21.405,50.759,20.629z"/>
<path d="M99.635,27.46c0-1.815-0.29-3.475-0.862-4.932c-0.577-1.469-1.432-2.738-2.543-3.772c-1.107-1.03-2.484-1.831-4.093-2.382
	c-1.594-0.545-3.431-0.822-5.46-0.822c-1.957,0-3.773,0.288-5.399,0.855c-1.634,0.571-3.061,1.384-4.239,2.419
	c-1.184,1.04-2.117,2.301-2.774,3.749c-0.658,1.448-0.992,3.06-0.992,4.789c0,1.787,0.349,3.422,1.036,4.862
	c0.687,1.441,1.679,2.686,2.947,3.699c1.259,1.006,2.801,1.789,4.583,2.324c1.769,0.531,3.771,0.801,5.952,0.801
	c0.931,0,1.797-0.03,2.576-0.089c0.778-0.059,1.555-0.151,2.31-0.275c0.752-0.123,1.527-0.287,2.303-0.486
	c0.771-0.198,1.606-0.436,2.506-0.715l0.352-0.109v-3.577l-0.765,0.477c-0.396,0.247-0.917,0.492-1.55,0.728
	c-0.646,0.241-1.372,0.46-2.157,0.651c-0.784,0.191-1.619,0.345-2.479,0.459c-0.856,0.113-1.713,0.171-2.546,0.171
	c-1.964,0-3.702-0.2-5.164-0.596c-1.445-0.39-2.675-0.954-3.655-1.678c-0.967-0.714-1.724-1.593-2.249-2.611
	c-0.454-0.882-0.757-1.871-0.905-2.946h23.268V27.46z M86.636,18.317c1.75,0,3.267,0.221,4.508,0.656
	c1.23,0.432,2.254,1.018,3.044,1.743c0.787,0.721,1.385,1.564,1.78,2.505c0.333,0.795,0.555,1.633,0.66,2.497H76.391
	c0.16-0.862,0.44-1.694,0.836-2.481c0.477-0.948,1.144-1.796,1.981-2.52c0.84-0.724,1.884-1.311,3.105-1.745
	C83.539,18.538,84.994,18.317,86.636,18.317z"/>
<polygon points="187.382,15.791 174.972,35.176 162.421,15.791 159.519,15.791 159.519,38.653 162.507,38.653 162.507,21.173 
	173.764,38.653 176.074,38.653 187.315,21.248 187.315,38.653 190.272,38.653 190.272,15.791 "/>
<path d="M208.206,15.791h-2.945l-11.963,22.862h3.31l3.008-5.776h14.236l3.008,5.776h3.31L208.206,15.791z M212.361,30.063h-11.253
	l5.633-10.768L212.361,30.063z"/>
<path d="M246.692,38.111c-0.111-1.325-0.398-2.528-0.852-3.577c-0.453-1.048-1.021-1.993-1.687-2.807
	c-0.664-0.813-1.427-1.532-2.269-2.136c-0.829-0.594-1.693-1.102-2.57-1.51c-0.875-0.408-1.762-0.738-2.637-0.983
	c-0.178-0.05-0.354-0.097-0.527-0.142c0.048-0.018,0.098-0.036,0.146-0.054c0.737-0.277,1.503-0.629,2.273-1.047
	c0.772-0.418,1.545-0.926,2.297-1.508c0.762-0.591,1.46-1.287,2.074-2.066c0.619-0.785,1.146-1.675,1.57-2.648
	c0.428-0.985,0.701-2.094,0.811-3.296l0.05-0.545h-3.037l-0.045,0.45c-0.1,0.985-0.356,1.914-0.766,2.76
	c-0.413,0.855-0.949,1.648-1.592,2.355c-0.648,0.713-1.406,1.355-2.253,1.906c-0.853,0.557-1.786,1.033-2.772,1.417
	c-0.992,0.385-2.047,0.682-3.136,0.882c-1.092,0.2-2.202,0.302-3.301,0.302h-2.352V15.791h-2.988v22.862h2.988v-10.04h2.893
	c1.097,0,2.225,0.081,3.354,0.242c1.127,0.16,2.229,0.413,3.276,0.752c1.043,0.337,2.047,0.771,2.984,1.29
	c0.921,0.512,1.75,1.129,2.463,1.835c0.707,0.702,1.294,1.517,1.743,2.422c0.446,0.897,0.725,1.921,0.826,3.044l0.041,0.455h3.038
	L246.692,38.111z"/>
<polygon points="254.554,35.791 254.554,27.992 269.798,27.992 269.798,25.178 254.554,25.178 254.554,18.652 270.608,18.652 
	270.608,15.791 251.39,15.791 251.39,38.653 270.847,38.653 270.847,35.791 "/>
<path d="M292.196,28.829c1.62-0.41,2.847-1.082,3.651-2.001c0.937-1.069,1.411-2.499,1.411-4.251c0-1.117-0.19-2.112-0.567-2.958
	c-0.389-0.868-1.007-1.599-1.835-2.171c-0.808-0.56-1.85-0.982-3.099-1.255c-1.217-0.267-2.692-0.401-4.386-0.401h-11.383v22.862
	h2.988v-9.356h8.395c0.334,0,0.658-0.005,0.972-0.017c0.22-0.007,0.437-0.018,0.651-0.03l7.037,9.403h3.768L292.196,28.829z
	 M278.978,18.652h6.285c1.729,0,3.205,0.056,4.39,0.165c1.148,0.106,2.08,0.31,2.771,0.606c0.646,0.275,1.094,0.646,1.371,1.131
	c0.284,0.502,0.429,1.182,0.429,2.021c0,0.848-0.146,1.525-0.433,2.013c-0.282,0.477-0.738,0.841-1.394,1.113
	c-0.703,0.292-1.645,0.488-2.798,0.584c-1.184,0.099-2.664,0.149-4.401,0.149h-6.221V18.652z"/>
</svg>
